<?xml version="1.0" encoding="utf-8"?>
<svg viewBox="0 0 24 24" overflow="scroll" xmlns="http://www.w3.org/2000/svg">
  <g transform="matrix(0.603576, 0, 0, 0.603576, -24.14304, -16.586569)" style="">
    <g style="">
      <path d="M 37.5 37.536 C 37.51 37.484 39.949 37.772 40.228 37.781 C 42.541 37.855 46.922 36.409 45.721 38.918 C 45.685 38.994 46.153 38.175 46.397 38.089 C 47.62 37.657 49.039 37.266 50.07 38.226 C 52.848 40.814 48.696 38.037 50.191 37.867 C 54.611 37.363 59.231 36.749 63.536 37.867 C 64.684 38.165 63.109 40.476 63.837 41.412 C 64.34 42.058 65.847 42.099 66.293 41.412 C 66.98 40.355 65.553 38.651 66.293 37.63 C 66.81 36.917 68.05 37.739 68.93 37.775 C 71.177 37.868 80.33 36.577 81.593 37.771 C 89.76 45.493 76.985 41.271 77.618 45.007 C 78.173 48.288 81.045 48.114 79.404 48.136 C 78.451 48.149 81.838 47.283 82.263 48.136 C 83.099 49.813 83.07 52.067 82.263 53.758 C 81.817 54.693 72.264 52.691 71.84 53.631 C 71.341 54.737 72.43 56.93 71.253 57.224 C 66.793 58.338 61.907 58.397 57.462 57.224 C 56.289 56.914 57.811 54.746 57.462 53.584 C 57.23 52.813 51.305 54.332 50.866 53.824 C 50.145 52.991 51.556 53.394 50.54 53.631 C 46.307 54.617 41.506 55.319 37.5 53.631 C 35.739 52.889 36.987 40.182 37.5 37.536 Z M 51.991 45.359 C 52.067 44.472 52.03 43.569 52.21 42.697 C 52.411 41.722 55.09 40.6 55.182 41.359 C 55.563 44.489 57.412 48.588 55.182 50.818 C 54.925 51.075 54.513 50.533 54.182 50.382 C 52.997 49.843 51.945 45.9 51.991 45.359 Z" style="stroke-linecap: round; stroke-linejoin: round; fill: rgb(255, 255, 255);"/>
    </g>
    <g style="pointer-events: none;">
      <path d="M 48.719 47.026 L 48.32 47.026 C 48.16 48.655 47.937 50.636 45.126 50.636 L 43.833 50.636 C 43.082 50.636 43.05 50.524 43.05 49.997 L 43.05 41.517 C 43.05 40.974 43.05 40.751 44.551 40.751 L 45.078 40.751 L 45.078 40.271 C 44.503 40.319 43.066 40.319 42.411 40.319 C 41.789 40.319 40.543 40.319 40 40.271 L 40 40.751 L 40.367 40.751 C 41.597 40.751 41.629 40.926 41.629 41.501 L 41.629 49.885 C 41.629 50.46 41.597 50.636 40.367 50.636 L 40 50.636 L 40 51.131 L 48.288 51.131 Z" style=""/>
      <path d="M 48.448 40.255 C 48.384 40.064 48.352 40 48.144 40 C 47.937 40 47.889 40.064 47.825 40.255 L 45.254 46.771 C 45.142 47.042 44.95 47.537 43.96 47.537 L 43.96 47.937 L 46.436 47.937 L 46.436 47.537 C 45.94 47.537 45.637 47.314 45.637 46.994 C 45.637 46.915 45.653 46.883 45.685 46.771 C 45.685 46.771 46.228 45.398 46.228 45.398 L 49.39 45.398 L 50.029 47.026 C 50.061 47.09 50.093 47.17 50.093 47.218 C 50.093 47.537 49.486 47.537 49.182 47.537 L 49.182 47.937 L 52.328 47.937 L 52.328 47.537 L 52.105 47.537 C 51.354 47.537 51.274 47.426 51.163 47.106 C 51.163 47.106 48.448 40.255 48.448 40.255 Z M 47.809 41.389 L 49.23 44.998 L 46.388 44.998 Z" style=""/>
      <path d="M 61.239 40.367 L 51.514 40.367 C 51.514 40.367 51.226 43.944 51.226 43.944 L 51.61 43.944 C 51.833 41.373 52.073 40.846 54.484 40.846 C 54.772 40.846 55.187 40.846 55.347 40.878 C 55.682 40.942 55.682 41.118 55.682 41.485 L 55.682 49.869 C 55.682 50.412 55.682 50.636 54.005 50.636 L 53.366 50.636 L 53.366 51.131 C 54.021 51.083 55.634 51.083 56.368 51.083 C 57.103 51.083 58.748 51.083 59.403 51.131 L 59.403 50.636 L 58.764 50.636 C 57.087 50.636 57.087 50.412 57.087 49.869 L 57.087 41.485 C 57.087 41.166 57.087 40.942 57.375 40.878 C 57.55 40.846 57.981 40.846 58.285 40.846 C 60.68 40.846 60.92 41.373 61.143 43.944 L 61.542 43.944 C 61.542 43.944 61.239 40.367 61.239 40.367 Z" style=""/>
      <path d="M 69.799 50.62 L 69.399 50.62 C 69 53.063 68.633 54.229 65.902 54.229 L 63.794 54.229 C 63.044 54.229 63.012 54.117 63.012 53.59 L 63.012 49.342 L 64.433 49.342 C 65.982 49.342 66.158 49.853 66.158 51.21 L 66.557 51.21 L 66.557 46.994 L 66.158 46.994 C 66.158 48.352 65.982 48.847 64.433 48.847 L 63.012 48.847 L 63.012 45.03 C 63.012 44.503 63.044 44.392 63.794 44.392 L 65.838 44.392 C 68.281 44.392 68.697 45.27 68.952 47.49 L 69.351 47.49 L 68.904 43.912 L 59.962 43.912 L 59.962 44.392 L 60.329 44.392 C 61.558 44.392 61.59 44.567 61.59 45.142 L 61.59 53.478 C 61.59 54.053 61.558 54.229 60.329 54.229 L 59.962 54.229 L 59.962 54.724 L 69.128 54.724 Z" style=""/>
      <path d="M 74.605 44.982 L 76.793 41.789 C 77.128 41.278 77.671 40.766 79.093 40.751 L 79.093 40.271 L 75.292 40.271 L 75.292 40.751 C 75.931 40.766 76.282 41.118 76.282 41.485 C 76.282 41.645 76.25 41.677 76.138 41.852 C 76.138 41.852 74.318 44.535 74.318 44.535 L 72.274 41.469 C 72.242 41.421 72.162 41.293 72.162 41.23 C 72.162 41.038 72.513 40.766 73.184 40.751 L 73.184 40.271 C 72.641 40.319 71.475 40.319 70.868 40.319 C 70.374 40.319 69.383 40.303 68.793 40.271 L 68.793 40.751 L 69.096 40.751 C 69.974 40.751 70.278 40.862 70.581 41.309 C 70.581 41.309 73.504 45.733 73.504 45.733 L 70.9 49.581 C 70.677 49.901 70.198 50.636 68.601 50.636 L 68.601 51.131 L 72.402 51.131 L 72.402 50.636 C 71.667 50.62 71.395 50.188 71.395 49.901 C 71.395 49.757 71.443 49.693 71.555 49.518 L 73.807 46.18 L 76.33 49.981 C 76.362 50.045 76.41 50.109 76.41 50.156 C 76.41 50.348 76.059 50.62 75.372 50.636 L 75.372 51.131 C 75.931 51.083 77.097 51.083 77.687 51.083 C 78.358 51.083 79.093 51.099 79.763 51.131 L 79.763 50.636 L 79.46 50.636 C 78.63 50.636 78.294 50.556 77.959 50.061 C 77.959 50.061 74.605 44.982 74.605 44.982 Z" style=""/>
    </g>
  </g>
</svg>