<?xml version="1.0" encoding="utf-8"?>
<svg viewBox="0 0 24 24" xmlns="http://www.w3.org/2000/svg">
  <path d="M 11.952999904632568 18.517000549316407 Q 10.693399904632567 18.517000549316407 9.96979990463257 17.806800549316407 Q 9.246199904632569 17.096600549316406 8.951399904632568 15.971000549316406 Q 8.656599904632568 14.845400549316405 8.656599904632568 13.612600549316406 Q 8.656599904632568 11.951000549316406 9.07199990463257 10.503800549316406 Q 9.487399904632568 9.056600549316405 10.210999904632569 7.971200549316405 Q 10.934599904632568 6.885800549316405 11.885999904632568 6.269400549316407 Q 12.83739990463257 5.653000549316406 13.882599904632569 5.653000549316406 Q 15.061799904632569 5.653000549316406 15.71839990463257 6.3766005493164055 Q 16.374999904632567 7.100200549316407 16.374999904632567 8.145400549316406 Q 16.374999904632567 8.976200549316406 15.97299990463257 9.498800549316407 Q 15.570999904632568 10.021400549316406 14.927799904632568 10.021400549316406 Q 14.418599904632568 10.021400549316406 14.137199904632569 9.699800549316405 Q 13.855799904632569 9.378200549316405 13.855799904632569 8.869000549316405 Q 13.855799904632569 8.252600549316407 14.271199904632569 7.743400549316405 Q 14.686599904632569 7.234200549316405 15.276199904632568 7.234200549316405 Q 15.758599904632568 7.234200549316405 15.959599904632569 7.555800549316405 Q 16.16059990463257 7.877400549316405 16.16059990463257 8.252600549316407 L 15.436999904632568 8.252600549316407 Q 15.436999904632568 7.4486005493164065 15.034999904632569 7.019800549316406 Q 14.63299990463257 6.591000549316405 14.016599904632569 6.591000549316405 Q 13.239399904632569 6.591000549316405 12.58279990463257 7.274400549316406 Q 11.926199904632568 7.957800549316406 11.457199904632569 9.043200549316406 Q 10.988199904632568 10.128600549316406 10.73359990463257 11.401600549316406 Q 10.47899990463257 12.674600549316406 10.47899990463257 13.853800549316407 Q 10.47899990463257 14.684600549316407 10.639799904632568 15.515400549316407 Q 10.80059990463257 16.346200549316407 11.189199904632568 16.895600549316406 Q 11.577799904632569 17.445000549316408 12.247799904632569 17.445000549316408 Q 12.730199904632569 17.445000549316408 13.199199904632568 17.110000549316407 Q 13.66819990463257 16.775000549316406 14.15059990463257 15.997800549316405 L 14.954599904632568 16.453400549316406 Q 14.284599904632568 17.525400549316405 13.614599904632568 18.021200549316408 Q 12.944599904632568 18.517000549316407 11.952999904632568 18.517000549316407 Z M 5.1993999046325685 18.517000549316407 Q 4.046999904632568 18.517000549316407 3.3769999046325685 17.793400549316406 Q 2.7069999046325686 17.069800549316405 2.7069999046325686 16.024600549316407 Q 2.7069999046325686 15.193800549316407 3.1089999046325683 14.671200549316406 Q 3.5109999046325684 14.148600549316406 4.154199904632568 14.148600549316406 Q 4.663399904632568 14.148600549316406 4.944799904632569 14.470200549316406 Q 5.226199904632568 14.791800549316406 5.226199904632568 15.301000549316406 Q 5.226199904632568 15.890600549316407 4.824199904632568 16.413200549316407 Q 4.422199904632569 16.935800549316404 3.8057999046325683 16.935800549316404 Q 3.323399904632568 16.935800549316404 3.1223999046325686 16.614200549316408 Q 2.9213999046325685 16.292600549316408 2.9213999046325685 15.917400549316406 L 3.6449999046325683 15.917400549316406 Q 3.6449999046325683 16.721400549316407 4.060399904632568 17.150200549316406 Q 4.475799904632568 17.579000549316405 5.065399904632569 17.579000549316405 Q 5.842599904632568 17.579000549316405 6.499199904632569 16.895600549316406 Q 7.155799904632569 16.212200549316407 7.624799904632568 15.126800549316407 Q 8.093799904632569 14.041400549316407 8.348399904632569 12.768400549316407 Q 8.602999904632568 11.495400549316406 8.602999904632568 10.316200549316406 Q 8.602999904632568 9.485400549316406 8.442199904632568 8.654600549316406 Q 8.281399904632568 7.823800549316406 7.906199904632569 7.274400549316406 Q 7.530999904632568 6.725000549316405 6.834199904632568 6.725000549316405 Q 6.351799904632569 6.725000549316405 5.882799904632568 7.060000549316406 Q 5.413799904632569 7.395000549316405 4.931399904632569 8.172200549316406 L 4.1273999046325685 7.716600549316405 Q 4.797399904632568 6.644600549316406 5.467399904632568 6.148800549316405 Q 6.137399904632568 5.653000549316406 7.128999904632568 5.653000549316406 Q 8.415399904632569 5.653000549316406 9.125599904632569 6.3632005493164066 Q 9.83579990463257 7.073400549316405 10.130599904632568 8.199000549316406 Q 10.425399904632568 9.324600549316406 10.425399904632568 10.557400549316405 Q 10.425399904632568 12.219000549316405 10.009999904632569 13.666200549316407 Q 9.594599904632569 15.113400549316406 8.87099990463257 16.198800549316406 Q 8.147399904632568 17.284200549316406 7.1959999046325684 17.900600549316405 Q 6.244599904632569 18.517000549316407 5.1993999046325685 18.517000549316407 Z" transform="matrix(1, 0, 0, 1, 0, 0)" style="fill: rgb(51, 51, 51); white-space: pre;"/>
  <path d="M 22.811999893188478 21.035000610351563 L 23.249499893188478 21.035000610351563 L 22.699499893188477 23.485000610351562 L 17.174499893188475 23.485000610351562 Q 17.174499893188475 22.772500610351564 17.474499893188476 22.210000610351564 Q 17.774499893188477 21.647500610351564 18.249499893188478 21.185000610351562 Q 18.724499893188476 20.722500610351563 19.255749893188476 20.297500610351562 Q 19.786999893188476 19.872500610351562 20.261999893188477 19.435000610351562 Q 20.736999893188475 18.997500610351562 21.036999893188476 18.485000610351562 Q 21.336999893188477 17.972500610351563 21.336999893188477 17.32250061035156 Q 21.336999893188477 16.497500610351562 20.893249893188475 15.991250610351562 Q 20.449499893188477 15.485000610351562 19.749499893188478 15.485000610351562 Q 19.111999893188475 15.485000610351562 18.655749893188478 15.753750610351563 Q 18.199499893188477 16.022500610351564 18.011999893188477 16.522500610351564 L 17.286999893188476 17.147500610351564 Q 17.286999893188476 16.63500061035156 17.593249893188478 16.141250610351562 Q 17.899499893188477 15.647500610351562 18.505749893188476 15.316250610351561 Q 19.111999893188475 14.985000610351562 20.024499893188477 14.985000610351562 Q 20.499499893188478 14.985000610351562 20.974499893188476 15.091250610351562 Q 21.449499893188477 15.197500610351563 21.843249893188478 15.453750610351562 Q 22.236999893188475 15.710000610351562 22.480749893188477 16.13500061035156 Q 22.724499893188476 16.560000610351562 22.724499893188476 17.172500610351562 Q 22.724499893188476 17.872500610351562 22.461999893188477 18.378750610351563 Q 22.199499893188477 18.88500061035156 21.755749893188476 19.26000061035156 Q 21.311999893188478 19.63500061035156 20.793249893188477 19.960000610351564 Q 20.274499893188477 20.285000610351563 19.743249893188477 20.616250610351564 Q 19.211999893188477 20.94750061035156 18.761999893188477 21.360000610351562 Q 18.311999893188478 21.772500610351564 18.036999893188476 22.335000610351564 L 20.361999893188475 22.335000610351564 Q 21.086999893188477 22.335000610351564 21.568249893188476 22.247500610351562 Q 22.049499893188475 22.160000610351563 22.343249893188478 21.878750610351563 Q 22.636999893188477 21.597500610351563 22.811999893188478 21.035000610351563 Z M 18.049499893188475 18.022500610351564 Q 17.736999893188475 18.022500610351564 17.511999893188477 17.79125061035156 Q 17.286999893188476 17.560000610351562 17.286999893188476 17.147500610351564 L 18.011999893188477 16.522500610351564 Q 18.261999893188477 16.51000061035156 18.430749893188477 16.610000610351562 Q 18.599499893188476 16.710000610351564 18.699499893188477 16.88500061035156 Q 18.799499893188475 17.060000610351562 18.799499893188475 17.272500610351564 Q 18.799499893188475 17.585000610351564 18.580749893188475 17.803750610351564 Q 18.361999893188475 18.022500610351564 18.049499893188475 18.022500610351564 Z" transform="matrix(1, 0, 0, 1, 0, 0)" style="fill: rgb(51, 51, 51); white-space: pre;"/>
</svg>