<?xml version="1.0" encoding="utf-8"?>
<svg viewBox="0 0 24 24" xmlns="http://www.w3.org/2000/svg">
  <path d="M 11.952999904632568 18.517000549316407 Q 10.693399904632567 18.517000549316407 9.96979990463257 17.806800549316407 Q 9.246199904632569 17.096600549316406 8.951399904632568 15.971000549316406 Q 8.656599904632568 14.845400549316405 8.656599904632568 13.612600549316406 Q 8.656599904632568 11.951000549316406 9.07199990463257 10.503800549316406 Q 9.487399904632568 9.056600549316405 10.210999904632569 7.971200549316405 Q 10.934599904632568 6.885800549316405 11.885999904632568 6.269400549316407 Q 12.83739990463257 5.653000549316406 13.882599904632569 5.653000549316406 Q 15.061799904632569 5.653000549316406 15.71839990463257 6.3766005493164055 Q 16.374999904632567 7.100200549316407 16.374999904632567 8.145400549316406 Q 16.374999904632567 8.976200549316406 15.97299990463257 9.498800549316407 Q 15.570999904632568 10.021400549316406 14.927799904632568 10.021400549316406 Q 14.418599904632568 10.021400549316406 14.137199904632569 9.699800549316405 Q 13.855799904632569 9.378200549316405 13.855799904632569 8.869000549316405 Q 13.855799904632569 8.252600549316407 14.271199904632569 7.743400549316405 Q 14.686599904632569 7.234200549316405 15.276199904632568 7.234200549316405 Q 15.758599904632568 7.234200549316405 15.959599904632569 7.555800549316405 Q 16.16059990463257 7.877400549316405 16.16059990463257 8.252600549316407 L 15.436999904632568 8.252600549316407 Q 15.436999904632568 7.4486005493164065 15.034999904632569 7.019800549316406 Q 14.63299990463257 6.591000549316405 14.016599904632569 6.591000549316405 Q 13.239399904632569 6.591000549316405 12.58279990463257 7.274400549316406 Q 11.926199904632568 7.957800549316406 11.457199904632569 9.043200549316406 Q 10.988199904632568 10.128600549316406 10.73359990463257 11.401600549316406 Q 10.47899990463257 12.674600549316406 10.47899990463257 13.853800549316407 Q 10.47899990463257 14.684600549316407 10.639799904632568 15.515400549316407 Q 10.80059990463257 16.346200549316407 11.189199904632568 16.895600549316406 Q 11.577799904632569 17.445000549316408 12.247799904632569 17.445000549316408 Q 12.730199904632569 17.445000549316408 13.199199904632568 17.110000549316407 Q 13.66819990463257 16.775000549316406 14.15059990463257 15.997800549316405 L 14.954599904632568 16.453400549316406 Q 14.284599904632568 17.525400549316405 13.614599904632568 18.021200549316408 Q 12.944599904632568 18.517000549316407 11.952999904632568 18.517000549316407 Z M 5.1993999046325685 18.517000549316407 Q 4.046999904632568 18.517000549316407 3.3769999046325685 17.793400549316406 Q 2.7069999046325686 17.069800549316405 2.7069999046325686 16.024600549316407 Q 2.7069999046325686 15.193800549316407 3.1089999046325683 14.671200549316406 Q 3.5109999046325684 14.148600549316406 4.154199904632568 14.148600549316406 Q 4.663399904632568 14.148600549316406 4.944799904632569 14.470200549316406 Q 5.226199904632568 14.791800549316406 5.226199904632568 15.301000549316406 Q 5.226199904632568 15.890600549316407 4.824199904632568 16.413200549316407 Q 4.422199904632569 16.935800549316404 3.8057999046325683 16.935800549316404 Q 3.323399904632568 16.935800549316404 3.1223999046325686 16.614200549316408 Q 2.9213999046325685 16.292600549316408 2.9213999046325685 15.917400549316406 L 3.6449999046325683 15.917400549316406 Q 3.6449999046325683 16.721400549316407 4.060399904632568 17.150200549316406 Q 4.475799904632568 17.579000549316405 5.065399904632569 17.579000549316405 Q 5.842599904632568 17.579000549316405 6.499199904632569 16.895600549316406 Q 7.155799904632569 16.212200549316407 7.624799904632568 15.126800549316407 Q 8.093799904632569 14.041400549316407 8.348399904632569 12.768400549316407 Q 8.602999904632568 11.495400549316406 8.602999904632568 10.316200549316406 Q 8.602999904632568 9.485400549316406 8.442199904632568 8.654600549316406 Q 8.281399904632568 7.823800549316406 7.906199904632569 7.274400549316406 Q 7.530999904632568 6.725000549316405 6.834199904632568 6.725000549316405 Q 6.351799904632569 6.725000549316405 5.882799904632568 7.060000549316406 Q 5.413799904632569 7.395000549316405 4.931399904632569 8.172200549316406 L 4.1273999046325685 7.716600549316405 Q 4.797399904632568 6.644600549316406 5.467399904632568 6.148800549316405 Q 6.137399904632568 5.653000549316406 7.128999904632568 5.653000549316406 Q 8.415399904632569 5.653000549316406 9.125599904632569 6.3632005493164066 Q 9.83579990463257 7.073400549316405 10.130599904632568 8.199000549316406 Q 10.425399904632568 9.324600549316406 10.425399904632568 10.557400549316405 Q 10.425399904632568 12.219000549316405 10.009999904632569 13.666200549316407 Q 9.594599904632569 15.113400549316406 8.87099990463257 16.198800549316406 Q 8.147399904632568 17.284200549316406 7.1959999046325684 17.900600549316405 Q 6.244599904632569 18.517000549316407 5.1993999046325685 18.517000549316407 Z" transform="matrix(1, 0, 0, 1, 0, 0)" style="fill: rgb(51, 51, 51); white-space: pre;"/>
  <path d="M 23.572999572753908 6.681999969482422 L 24.010499572753908 6.681999969482422 L 23.460499572753907 9.131999969482422 L 17.935499572753905 9.131999969482422 Q 17.935499572753905 8.419499969482422 18.235499572753906 7.8569999694824215 Q 18.535499572753906 7.2944999694824215 19.010499572753908 6.831999969482421 Q 19.485499572753906 6.369499969482422 20.016749572753906 5.944499969482422 Q 20.547999572753906 5.519499969482421 21.022999572753907 5.081999969482422 Q 21.497999572753905 4.644499969482422 21.797999572753906 4.131999969482422 Q 22.097999572753906 3.6194999694824217 22.097999572753906 2.9694999694824213 Q 22.097999572753906 2.144499969482421 21.654249572753905 1.6382499694824215 Q 21.210499572753907 1.1319999694824219 20.510499572753908 1.1319999694824219 Q 19.872999572753905 1.1319999694824219 19.416749572753908 1.4007499694824217 Q 18.960499572753907 1.6694999694824215 18.772999572753907 2.1694999694824215 L 18.047999572753906 2.7944999694824215 Q 18.047999572753906 2.2819999694824213 18.354249572753908 1.7882499694824219 Q 18.660499572753906 1.2944999694824215 19.266749572753906 0.9632499694824208 Q 19.872999572753905 0.6319999694824219 20.785499572753906 0.6319999694824219 Q 21.260499572753908 0.6319999694824219 21.735499572753906 0.7382499694824212 Q 22.210499572753907 0.8444999694824222 22.604249572753908 1.1007499694824219 Q 22.997999572753905 1.3569999694824215 23.241749572753907 1.7819999694824213 Q 23.485499572753906 2.206999969482421 23.485499572753906 2.819499969482422 Q 23.485499572753906 3.519499969482421 23.222999572753906 4.025749969482422 Q 22.960499572753907 4.531999969482421 22.516749572753906 4.906999969482421 Q 22.072999572753908 5.281999969482422 21.554249572753907 5.6069999694824215 Q 21.035499572753906 5.931999969482422 20.504249572753906 6.2632499694824215 Q 19.972999572753906 6.594499969482422 19.522999572753907 7.006999969482422 Q 19.072999572753908 7.4194999694824215 18.797999572753906 7.9819999694824215 L 21.122999572753905 7.9819999694824215 Q 21.847999572753906 7.9819999694824215 22.329249572753906 7.894499969482422 Q 22.810499572753905 7.806999969482422 23.104249572753908 7.525749969482422 Q 23.397999572753907 7.244499969482422 23.572999572753908 6.681999969482422 Z M 18.810499572753905 3.6694999694824215 Q 18.497999572753905 3.6694999694824215 18.272999572753907 3.4382499694824213 Q 18.047999572753906 3.206999969482421 18.047999572753906 2.7944999694824215 L 18.772999572753907 2.1694999694824215 Q 19.022999572753907 2.1569999694824213 19.191749572753906 2.256999969482422 Q 19.360499572753906 2.3569999694824215 19.460499572753907 2.5319999694824213 Q 19.560499572753905 2.706999969482421 19.560499572753905 2.9194999694824215 Q 19.560499572753905 3.2319999694824215 19.341749572753905 3.4507499694824215 Q 19.122999572753905 3.6694999694824215 18.810499572753905 3.6694999694824215 Z" transform="matrix(1, 0, 0, 1, 0, 0)" style="fill: rgb(51, 51, 51); white-space: pre;"/>
</svg>