<?xml version="1.0" encoding="utf-8"?>
<svg viewBox="0 0 128 128" xmlns="http://www.w3.org/2000/svg">
  <g transform="matrix(0.730901, 0, 0, 0.730901, 81.771454, 19.307709)" style="">
    <path d="M 18.52 101.36 L 18.52 21.51 C 18.05 16.98 16.66 13.62 14.54 11.25 C 12.24 8.67 8.97 7.16 5.01 6.51 C 3.23 6.22 2.02 4.54 2.31 2.75 C 2.6 0.97 4.28 -0.24 6.07 0.05 C 11.48 0.94 16.05 3.12 19.41 6.89 C 20.27 7.85 21.04 8.91 21.72 10.06 C 22.58 8.57 23.6 7.26 24.77 6.1 C 28.28 2.62 32.98 0.72 38.59 0.02 C 40.39 -0.2 42.02 1.08 42.24 2.88 C 42.46 4.68 41.18 6.31 39.38 6.53 C 35.18 7.05 31.77 8.37 29.38 10.74 C 27.01 13.09 25.51 16.59 25.08 21.52 L 25.08 101.35 C 25.51 106.28 27.01 109.79 29.38 112.13 C 31.77 114.49 35.18 115.82 39.38 116.34 C 41.18 116.56 42.46 118.2 42.24 119.99 C 42.02 121.79 40.39 123.07 38.59 122.85 C 32.98 122.15 28.28 120.25 24.77 116.77 C 23.6 115.61 22.58 114.3 21.72 112.81 C 21.04 113.97 20.27 115.02 19.41 115.98 C 16.04 119.75 11.47 121.93 6.07 122.82 C 4.29 123.11 2.61 121.9 2.31 120.12 C 2.02 118.34 3.23 116.66 5.01 116.36 C 8.97 115.71 12.24 114.2 14.54 111.62 C 16.66 109.25 18.05 105.88 18.52 101.36 Z"/>
  </g>
  <path d="M 19.688 34.989 C 19.688 33.995 20.305 33.499 21.539 33.499 L 71.288 33.499 L 73.722 53.48 L 71.603 53.48 C 70.699 46.414 68.64 41.707 65.423 39.364 C 62.626 37.32 57.546 36.296 50.178 36.296 L 29.656 36.296 L 47.922 60.291 C 48.314 60.803 48.509 61.207 48.509 61.509 C 48.509 61.778 48.254 62.246 47.741 62.908 L 26.094 90.33 L 49.953 90.33 C 57.29 90.33 62.432 89.291 65.378 87.218 C 68.805 84.782 70.88 80.061 71.603 73.054 L 73.722 73.054 L 71.288 94.073 L 21.402 94.073 C 20.32 94.073 19.779 93.742 19.779 93.081 C 19.779 92.81 20.049 92.328 20.589 91.638 L 41.789 64.756 Z" style="fill: rgb(51, 51, 51); white-space: pre;"/>
</svg>