<?xml version="1.0" encoding="utf-8"?>
<svg viewBox="0 0 24 24" xmlns="http://www.w3.org/2000/svg">
  <path style="fill: rgb(216, 216, 216); stroke: rgb(0, 0, 0); stroke-miterlimit: 6; stroke-width: 0.5px;" d="M 2.854 10.426 L 21.549 10.459"/>
  <path d="M 13.728000068664551 7.033999919891357 Q 13.003000068664551 7.033999919891357 12.58425006866455 6.640249919891358 Q 12.165500068664551 6.246499919891358 11.98425006866455 5.646499919891357 Q 11.80300006866455 5.046499919891358 11.80300006866455 4.433999919891358 Q 11.80300006866455 3.6464999198913572 12.040500068664551 2.977749919891357 Q 12.27800006866455 2.308999919891357 12.690500068664551 1.821499919891357 Q 13.103000068664551 1.3339999198913572 13.62175006866455 1.0589999198913569 Q 14.14050006866455 0.7839999198913574 14.71550006866455 0.7839999198913574 Q 15.40300006866455 0.7839999198913574 15.70300006866455 1.1402499198913567 Q 16.00300006866455 1.4964999198913569 16.00300006866455 1.9714999198913574 Q 16.00300006866455 2.3964999198913572 15.784250068664551 2.758999919891357 Q 15.565500068664551 3.1214999198913573 15.165500068664551 3.1214999198913573 Q 14.82800006866455 3.1214999198913573 14.646750068664552 2.8652499198913572 Q 14.46550006866455 2.6089999198913576 14.46550006866455 2.2714999198913572 Q 14.46550006866455 1.8589999198913567 14.696750068664551 1.5777499198913567 Q 14.928000068664552 1.2964999198913567 15.21550006866455 1.2964999198913567 Q 15.378000068664551 1.2964999198913567 15.571750068664551 1.4089999198913574 Q 15.76550006866455 1.5214999198913572 15.76550006866455 1.8464999198913574 L 15.45300006866455 1.946499919891357 Q 15.45300006866455 1.5464999198913567 15.27800006866455 1.383999919891357 Q 15.103000068664551 1.2214999198913574 14.865500068664552 1.2214999198913574 Q 14.51550006866455 1.2214999198913574 14.20300006866455 1.508999919891357 Q 13.89050006866455 1.7964999198913567 13.646750068664552 2.290249919891357 Q 13.40300006866455 2.7839999198913574 13.259250068664551 3.4339999198913573 Q 13.115500068664552 4.083999919891357 13.115500068664552 4.796499919891357 Q 13.115500068664552 5.283999919891357 13.196750068664551 5.646499919891357 Q 13.27800006866455 6.008999919891357 13.459250068664552 6.208999919891357 Q 13.64050006866455 6.408999919891357 13.940500068664551 6.408999919891357 Q 14.253000068664551 6.408999919891357 14.534250068664551 6.221499919891357 Q 14.815500068664551 6.033999919891357 14.978000068664551 5.758999919891357 L 15.353000068664551 5.983999919891358 Q 15.065500068664551 6.558999919891358 14.646750068664552 6.796499919891358 Q 14.228000068664551 7.033999919891357 13.728000068664551 7.033999919891357 Z M 9.82800006866455 7.033999919891357 Q 9.14050006866455 7.033999919891357 8.83425006866455 6.658999919891357 Q 8.52800006866455 6.283999919891357 8.52800006866455 5.758999919891357 Q 8.52800006866455 5.246499919891358 8.76550006866455 4.971499919891357 Q 9.003000068664551 4.696499919891357 9.353000068664551 4.696499919891357 Q 9.70300006866455 4.696499919891357 9.884250068664551 4.946499919891357 Q 10.065500068664551 5.196499919891357 10.065500068664551 5.546499919891358 Q 10.065500068664551 5.971499919891357 9.83425006866455 6.246499919891358 Q 9.603000068664551 6.521499919891357 9.315500068664551 6.521499919891357 Q 9.15300006866455 6.521499919891357 8.95925006866455 6.402749919891358 Q 8.76550006866455 6.283999919891357 8.76550006866455 5.971499919891357 L 9.07800006866455 5.871499919891358 Q 9.07800006866455 6.258999919891357 9.253000068664551 6.427749919891357 Q 9.42800006866455 6.596499919891357 9.665500068664551 6.596499919891357 Q 10.01550006866455 6.596499919891357 10.32800006866455 6.308999919891358 Q 10.64050006866455 6.021499919891357 10.884250068664551 5.527749919891358 Q 11.128000068664551 5.033999919891357 11.27175006866455 4.383999919891357 Q 11.415500068664551 3.733999919891357 11.415500068664551 3.0214999198913572 Q 11.415500068664551 2.5339999198913574 11.33425006866455 2.1714999198913576 Q 11.253000068664551 1.8089999198913569 11.07800006866455 1.6089999198913567 Q 10.90300006866455 1.4089999198913574 10.603000068664551 1.4089999198913574 Q 10.290500068664551 1.4089999198913574 10.009250068664551 1.602749919891357 Q 9.728000068664551 1.7964999198913567 9.55300006866455 2.058999919891357 L 9.17800006866455 1.8339999198913572 Q 9.46550006866455 1.258999919891357 9.884250068664551 1.0214999198913572 Q 10.30300006866455 0.7839999198913574 10.80300006866455 0.7839999198913574 Q 11.52800006866455 0.7839999198913574 11.946750068664551 1.1777499198913572 Q 12.36550006866455 1.571499919891357 12.54675006866455 2.165249919891357 Q 12.728000068664551 2.758999919891357 12.728000068664551 3.3714999198913573 Q 12.728000068664551 4.158999919891357 12.49050006866455 4.827749919891357 Q 12.253000068664551 5.496499919891358 11.846750068664551 5.990249919891357 Q 11.440500068664551 6.483999919891358 10.915500068664551 6.758999919891357 Q 10.39050006866455 7.033999919891357 9.82800006866455 7.033999919891357 Z" transform="matrix(1, 0, 0, 1, 0, 0)" style="fill: rgb(51, 51, 51); white-space: pre;"/>
  <path d="M 10.32800006866455 23.36199951171875 Q 9.665500068664551 23.36199951171875 9.196750068664551 23.12449951171875 Q 8.728000068664551 22.88699951171875 8.48425006866455 22.51824951171875 Q 8.24050006866455 22.14949951171875 8.24050006866455 21.73699951171875 Q 8.24050006866455 21.32449951171875 8.478000068664551 20.98074951171875 Q 8.71550006866455 20.63699951171875 9.14050006866455 20.63699951171875 Q 9.46550006866455 20.63699951171875 9.65300006866455 20.84949951171875 Q 9.84050006866455 21.06199951171875 9.84050006866455 21.38699951171875 Q 9.84050006866455 21.77449951171875 9.596750068664551 22.08074951171875 Q 9.353000068664551 22.38699951171875 9.01550006866455 22.42449951171875 Q 9.20300006866455 22.64949951171875 9.49050006866455 22.78699951171875 Q 9.77800006866455 22.92449951171875 10.11550006866455 22.92449951171875 Q 10.628000068664551 22.92449951171875 11.040500068664551 22.59949951171875 Q 11.45300006866455 22.27449951171875 11.728000068664551 21.68699951171875 Q 12.003000068664551 21.09949951171875 12.115500068664552 20.29949951171875 L 12.26550006866455 19.24949951171875 Q 11.89050006866455 19.76199951171875 11.39675006866455 19.99949951171875 Q 10.90300006866455 20.23699951171875 10.32800006866455 20.23699951171875 Q 9.353000068664551 20.23699951171875 9.02800006866455 19.69324951171875 Q 8.70300006866455 19.14949951171875 8.82800006866455 18.23699951171875 L 9.315500068664551 14.67449951171875 L 9.190500068664551 14.54949951171875 L 8.440500068664551 14.54949951171875 L 8.503000068664551 14.11199951171875 Q 9.09050006866455 14.11199951171875 9.784250068664551 14.09324951171875 Q 10.478000068664551 14.074499511718749 10.978000068664551 13.98699951171875 L 11.103000068664551 14.11199951171875 L 10.52800006866455 18.23699951171875 Q 10.46550006866455 18.69949951171875 10.478000068664551 18.99324951171875 Q 10.49050006866455 19.28699951171875 10.603000068664551 19.41824951171875 Q 10.71550006866455 19.54949951171875 10.95300006866455 19.54949951171875 Q 11.253000068664551 19.54949951171875 11.57800006866455 19.31199951171875 Q 11.90300006866455 19.07449951171875 12.165500068664551 18.58074951171875 Q 12.428000068664552 18.08699951171875 12.52800006866455 17.32449951171875 L 12.90300006866455 14.67449951171875 L 12.77800006866455 14.54949951171875 L 12.02800006866455 14.54949951171875 L 12.09050006866455 14.11199951171875 Q 12.678000068664552 14.11199951171875 13.37175006866455 14.09324951171875 Q 14.065500068664551 14.074499511718749 14.565500068664551 13.98699951171875 L 14.678000068664552 14.11199951171875 L 13.84050006866455 20.09949951171875 Q 13.753000068664551 20.71199951171875 13.509250068664551 21.29324951171875 Q 13.26550006866455 21.87449951171875 12.84050006866455 22.34324951171875 Q 12.415500068664551 22.81199951171875 11.79675006866455 23.08699951171875 Q 11.17800006866455 23.36199951171875 10.32800006866455 23.36199951171875 Z" transform="matrix(1, 0, 0, 1, 0, 0)" style="fill: rgb(51, 51, 51); white-space: pre;"/>
</svg>