<?xml version="1.0" encoding="utf-8"?>
<svg viewBox="0 0 128 128" xmlns="http://www.w3.org/2000/svg">
  <desc>
    Icon image for wordpress plugin math-input-with-mathquill. See https://wordpress.org/plugins/math-input-with-mathquill/
  </desc>
  <rect x="18.748" y="39.48" width="88.946" height="48.933" style="stroke: rgb(0, 0, 0); stroke-linecap: round; stroke-linejoin: round; fill: rgb(219, 235, 247); stroke-dasharray: 8px; paint-order: stroke; stroke-width: 4px;"/>
  <g transform="matrix(0.684452, 0, 0, 0.684452, 68.267357, 21.693604)" style="">
    <path d="M 18.52 101.36 L 18.52 21.51 C 18.05 16.98 16.66 13.62 14.54 11.25 C 12.24 8.67 8.97 7.16 5.01 6.51 C 3.23 6.22 2.02 4.54 2.31 2.75 C 2.6 0.97 4.28 -0.24 6.07 0.05 C 11.48 0.94 16.05 3.12 19.41 6.89 C 20.27 7.85 21.04 8.91 21.72 10.06 C 22.58 8.57 23.6 7.26 24.77 6.1 C 28.28 2.62 32.98 0.72 38.59 0.02 C 40.39 -0.2 42.02 1.08 42.24 2.88 C 42.46 4.68 41.18 6.31 39.38 6.53 C 35.18 7.05 31.77 8.37 29.38 10.74 C 27.01 13.09 25.51 16.59 25.08 21.52 L 25.08 101.35 C 25.51 106.28 27.01 109.79 29.38 112.13 C 31.77 114.49 35.18 115.82 39.38 116.34 C 41.18 116.56 42.46 118.2 42.24 119.99 C 42.02 121.79 40.39 123.07 38.59 122.85 C 32.98 122.15 28.28 120.25 24.77 116.77 C 23.6 115.61 22.58 114.3 21.72 112.81 C 21.04 113.97 20.27 115.02 19.41 115.98 C 16.04 119.75 11.47 121.93 6.07 122.82 C 4.29 123.11 2.61 121.9 2.31 120.12 C 2.02 118.34 3.23 116.66 5.01 116.36 C 8.97 115.71 12.24 114.2 14.54 111.62 C 16.66 109.25 18.05 105.88 18.52 101.36 Z"/>
  </g>
  <path d="M 34.70033645629883 50.692291259765625 Q 34.70033645629883 49.991363525390625 35.57118606567383 49.991363525390625 L 58.99916458129883 49.991363525390625 L 60.14613723754883 59.400787353515625 L 59.14784622192383 59.400787353515625 Q 58.51063919067383 54.409332275390625 56.23793411254883 52.752593994140625 Q 54.26259231567383 51.308258056640625 49.05873489379883 51.308258056640625 L 39.39442825317383 51.308258056640625 L 47.99672317504883 62.608062744140625 Q 48.27284622192383 62.969146728515625 48.27284622192383 63.181549072265625 Q 48.27284622192383 63.372711181640625 47.91176223754883 63.839996337890625 L 37.71644973754883 76.75405883789062 L 48.95253372192383 76.75405883789062 Q 54.13515090942383 76.75405883789062 56.21669387817383 75.28848266601562 Q 58.63808059692383 73.56802368164062 59.14784622192383 68.61904907226562 L 60.14613723754883 68.61904907226562 L 58.99916458129883 78.51699829101562 L 35.50746536254883 78.51699829101562 Q 34.74281692504883 78.51699829101562 34.74281692504883 78.04971313476562 Q 34.74281692504883 77.85855102539062 35.12514114379883 77.37002563476562 L 45.10805130004883 64.71084594726562 Z" transform="matrix(1, 0, 0, 1, 0, 0)" style="fill: rgb(51, 51, 51); white-space: pre;"/>
</svg>
